<mxfile host="Electron" agent="Mozilla/5.0 (Windows NT 10.0; Win64; x64) AppleWebKit/537.36 (KHTML, like Gecko) draw.io/26.2.2 Chrome/134.0.6998.178 Electron/35.1.2 Safari/537.36" version="26.2.2">
  <diagram name="Página-1" id="B3FKdtHm93B9rexC4VjD">
    <mxGraphModel dx="1190" dy="701" grid="1" gridSize="10" guides="1" tooltips="1" connect="1" arrows="1" fold="1" page="1" pageScale="1" pageWidth="827" pageHeight="1169" math="0" shadow="0">
      <root>
        <mxCell id="0" />
        <mxCell id="1" parent="0" />
        <mxCell id="ruwKu6qkfZP39pcEH6fN-24" style="edgeStyle=orthogonalEdgeStyle;rounded=0;orthogonalLoop=1;jettySize=auto;html=1;endArrow=classic;startFill=1;endFill=1;startArrow=classic;" parent="1" source="ruwKu6qkfZP39pcEH6fN-1" target="ruwKu6qkfZP39pcEH6fN-23" edge="1">
          <mxGeometry relative="1" as="geometry" />
        </mxCell>
        <mxCell id="ruwKu6qkfZP39pcEH6fN-11" style="edgeStyle=orthogonalEdgeStyle;rounded=0;orthogonalLoop=1;jettySize=auto;html=1;entryX=0.5;entryY=1;entryDx=0;entryDy=0;endArrow=classic;startFill=0;exitX=0.468;exitY=0.017;exitDx=0;exitDy=0;exitPerimeter=0;endFill=1;" parent="1" source="VuKC-oQQ4Q0P8t1NDrwS-15" target="ruwKu6qkfZP39pcEH6fN-1" edge="1">
          <mxGeometry relative="1" as="geometry">
            <mxPoint x="325" y="330" as="sourcePoint" />
            <Array as="points">
              <mxPoint x="340" y="280" />
              <mxPoint x="400" y="280" />
            </Array>
          </mxGeometry>
        </mxCell>
        <mxCell id="ruwKu6qkfZP39pcEH6fN-14" style="edgeStyle=orthogonalEdgeStyle;rounded=0;orthogonalLoop=1;jettySize=auto;html=1;entryX=0;entryY=0.5;entryDx=0;entryDy=0;endArrow=classic;startFill=0;endFill=1;" parent="1" source="ruwKu6qkfZP39pcEH6fN-13" target="ruwKu6qkfZP39pcEH6fN-1" edge="1">
          <mxGeometry relative="1" as="geometry" />
        </mxCell>
        <mxCell id="ruwKu6qkfZP39pcEH6fN-23" value="Modulo Lora" style="rounded=0;whiteSpace=wrap;html=1;" parent="1" vertex="1">
          <mxGeometry x="350" y="40" width="100" height="60" as="geometry" />
        </mxCell>
        <mxCell id="VuKC-oQQ4Q0P8t1NDrwS-11" style="edgeStyle=orthogonalEdgeStyle;rounded=0;orthogonalLoop=1;jettySize=auto;html=1;" parent="1" source="VuKC-oQQ4Q0P8t1NDrwS-1" target="VuKC-oQQ4Q0P8t1NDrwS-9" edge="1">
          <mxGeometry relative="1" as="geometry" />
        </mxCell>
        <mxCell id="VuKC-oQQ4Q0P8t1NDrwS-2" style="edgeStyle=orthogonalEdgeStyle;rounded=0;orthogonalLoop=1;jettySize=auto;html=1;exitX=1;exitY=0.5;exitDx=0;exitDy=0;" parent="1" source="ruwKu6qkfZP39pcEH6fN-23" target="jBfVp0cyOir4GYcVWD3M-1" edge="1">
          <mxGeometry relative="1" as="geometry" />
        </mxCell>
        <mxCell id="VuKC-oQQ4Q0P8t1NDrwS-3" value="LORA" style="edgeLabel;html=1;align=center;verticalAlign=middle;resizable=0;points=[];" parent="VuKC-oQQ4Q0P8t1NDrwS-2" vertex="1" connectable="0">
          <mxGeometry x="-0.2196" y="-1" relative="1" as="geometry">
            <mxPoint x="3" y="-1" as="offset" />
          </mxGeometry>
        </mxCell>
        <mxCell id="VuKC-oQQ4Q0P8t1NDrwS-6" value="Procesamiento de los datos" style="swimlane;whiteSpace=wrap;html=1;startSize=23;" parent="1" vertex="1">
          <mxGeometry x="540" y="280" width="240" height="290" as="geometry">
            <mxRectangle x="530" y="320" width="140" height="30" as="alternateBounds" />
          </mxGeometry>
        </mxCell>
        <mxCell id="VuKC-oQQ4Q0P8t1NDrwS-8" style="edgeStyle=orthogonalEdgeStyle;rounded=0;orthogonalLoop=1;jettySize=auto;html=1;entryX=0.5;entryY=0;entryDx=0;entryDy=0;" parent="VuKC-oQQ4Q0P8t1NDrwS-6" source="VuKC-oQQ4Q0P8t1NDrwS-5" target="VuKC-oQQ4Q0P8t1NDrwS-7" edge="1">
          <mxGeometry relative="1" as="geometry" />
        </mxCell>
        <mxCell id="VuKC-oQQ4Q0P8t1NDrwS-5" value="BBDD" style="shape=datastore;whiteSpace=wrap;html=1;" parent="VuKC-oQQ4Q0P8t1NDrwS-6" vertex="1">
          <mxGeometry x="90" y="130" width="60" height="70" as="geometry" />
        </mxCell>
        <mxCell id="VuKC-oQQ4Q0P8t1NDrwS-7" value="Visualización" style="rounded=0;whiteSpace=wrap;html=1;" parent="VuKC-oQQ4Q0P8t1NDrwS-6" vertex="1">
          <mxGeometry x="60" y="230" width="120" height="50" as="geometry" />
        </mxCell>
        <mxCell id="VuKC-oQQ4Q0P8t1NDrwS-10" style="edgeStyle=orthogonalEdgeStyle;rounded=0;orthogonalLoop=1;jettySize=auto;html=1;" parent="VuKC-oQQ4Q0P8t1NDrwS-6" source="VuKC-oQQ4Q0P8t1NDrwS-9" target="VuKC-oQQ4Q0P8t1NDrwS-5" edge="1">
          <mxGeometry relative="1" as="geometry" />
        </mxCell>
        <mxCell id="VuKC-oQQ4Q0P8t1NDrwS-9" value="Extractor" style="rounded=0;whiteSpace=wrap;html=1;" parent="VuKC-oQQ4Q0P8t1NDrwS-6" vertex="1">
          <mxGeometry x="60" y="50" width="120" height="50" as="geometry" />
        </mxCell>
        <mxCell id="VuKC-oQQ4Q0P8t1NDrwS-15" value="Grupo de sensores" style="swimlane;whiteSpace=wrap;html=1;" parent="1" vertex="1">
          <mxGeometry x="200" y="330" width="300" height="190" as="geometry">
            <mxRectangle x="180" y="330" width="120" height="30" as="alternateBounds" />
          </mxGeometry>
        </mxCell>
        <mxCell id="ruwKu6qkfZP39pcEH6fN-5" value="Acelerómetro" style="rounded=0;whiteSpace=wrap;html=1;" parent="VuKC-oQQ4Q0P8t1NDrwS-15" vertex="1">
          <mxGeometry x="175" y="130" width="100" height="50" as="geometry" />
        </mxCell>
        <mxCell id="ruwKu6qkfZP39pcEH6fN-3" value="Humedad" style="rounded=0;whiteSpace=wrap;html=1;" parent="VuKC-oQQ4Q0P8t1NDrwS-15" vertex="1">
          <mxGeometry x="175" y="50" width="100" height="50" as="geometry" />
        </mxCell>
        <mxCell id="ruwKu6qkfZP39pcEH6fN-2" value="Temperatura" style="rounded=0;whiteSpace=wrap;html=1;" parent="VuKC-oQQ4Q0P8t1NDrwS-15" vertex="1">
          <mxGeometry x="35" y="50" width="100" height="50" as="geometry" />
        </mxCell>
        <mxCell id="ruwKu6qkfZP39pcEH6fN-4" value="Gases" style="rounded=0;whiteSpace=wrap;html=1;" parent="VuKC-oQQ4Q0P8t1NDrwS-15" vertex="1">
          <mxGeometry x="35" y="130" width="100" height="50" as="geometry" />
        </mxCell>
        <mxCell id="VuKC-oQQ4Q0P8t1NDrwS-21" value="Uso de energía" style="swimlane;whiteSpace=wrap;html=1;" parent="1" vertex="1">
          <mxGeometry x="20" y="10" width="220" height="230" as="geometry">
            <mxRectangle x="35" y="10" width="110" height="30" as="alternateBounds" />
          </mxGeometry>
        </mxCell>
        <mxCell id="ruwKu6qkfZP39pcEH6fN-13" value="Cargador / Inversor" style="rounded=0;whiteSpace=wrap;html=1;" parent="VuKC-oQQ4Q0P8t1NDrwS-21" vertex="1">
          <mxGeometry x="50" y="160" width="110" height="50" as="geometry" />
        </mxCell>
        <mxCell id="ruwKu6qkfZP39pcEH6fN-16" value="Bateria" style="rounded=0;whiteSpace=wrap;html=1;" parent="VuKC-oQQ4Q0P8t1NDrwS-21" vertex="1">
          <mxGeometry x="120" y="40" width="90" height="40" as="geometry" />
        </mxCell>
        <mxCell id="jBfVp0cyOir4GYcVWD3M-9" style="edgeStyle=orthogonalEdgeStyle;rounded=0;orthogonalLoop=1;jettySize=auto;html=1;entryX=0.75;entryY=0;entryDx=0;entryDy=0;startArrow=classic;startFill=1;" parent="VuKC-oQQ4Q0P8t1NDrwS-21" source="ruwKu6qkfZP39pcEH6fN-16" target="ruwKu6qkfZP39pcEH6fN-13" edge="1">
          <mxGeometry relative="1" as="geometry" />
        </mxCell>
        <mxCell id="ruwKu6qkfZP39pcEH6fN-15" value="Panel Solar" style="rounded=0;whiteSpace=wrap;html=1;" parent="VuKC-oQQ4Q0P8t1NDrwS-21" vertex="1">
          <mxGeometry x="20" y="40" width="90" height="40" as="geometry" />
        </mxCell>
        <mxCell id="ruwKu6qkfZP39pcEH6fN-21" style="edgeStyle=orthogonalEdgeStyle;rounded=0;orthogonalLoop=1;jettySize=auto;html=1;entryX=0.25;entryY=0;entryDx=0;entryDy=0;" parent="VuKC-oQQ4Q0P8t1NDrwS-21" source="ruwKu6qkfZP39pcEH6fN-15" target="ruwKu6qkfZP39pcEH6fN-13" edge="1">
          <mxGeometry relative="1" as="geometry" />
        </mxCell>
        <mxCell id="jBfVp0cyOir4GYcVWD3M-3" value="Procesamiento de LoRa" style="swimlane;whiteSpace=wrap;html=1;" parent="1" vertex="1">
          <mxGeometry x="570" y="10" width="200" height="220" as="geometry" />
        </mxCell>
        <mxCell id="jBfVp0cyOir4GYcVWD3M-1" value="Lora Gateway" style="rounded=0;whiteSpace=wrap;html=1;" parent="jBfVp0cyOir4GYcVWD3M-3" vertex="1">
          <mxGeometry x="30" y="35" width="120" height="50" as="geometry" />
        </mxCell>
        <mxCell id="VuKC-oQQ4Q0P8t1NDrwS-1" value="Servidor" style="ellipse;shape=cloud;whiteSpace=wrap;html=1;" parent="jBfVp0cyOir4GYcVWD3M-3" vertex="1">
          <mxGeometry x="30" y="120" width="120" height="80" as="geometry" />
        </mxCell>
        <mxCell id="jBfVp0cyOir4GYcVWD3M-2" style="edgeStyle=orthogonalEdgeStyle;rounded=0;orthogonalLoop=1;jettySize=auto;html=1;" parent="jBfVp0cyOir4GYcVWD3M-3" source="jBfVp0cyOir4GYcVWD3M-1" target="VuKC-oQQ4Q0P8t1NDrwS-1" edge="1">
          <mxGeometry relative="1" as="geometry" />
        </mxCell>
        <mxCell id="jBfVp0cyOir4GYcVWD3M-8" value="Control" style="swimlane;whiteSpace=wrap;html=1;" parent="1" vertex="1">
          <mxGeometry x="300" y="10" width="180" height="240" as="geometry" />
        </mxCell>
        <mxCell id="ruwKu6qkfZP39pcEH6fN-1" value="Microcontrollador" style="rounded=0;whiteSpace=wrap;html=1;" parent="jBfVp0cyOir4GYcVWD3M-8" vertex="1">
          <mxGeometry x="40" y="160" width="120" height="50" as="geometry" />
        </mxCell>
      </root>
    </mxGraphModel>
  </diagram>
</mxfile>
